<svg width="538" height="99" viewBox="0 0 538 99" fill="none" xmlns="http://www.w3.org/2000/svg">
<mask id="path-1-inside-1_159_1844" fill="white">
<path d="M71.6215 1.15199L91.7175 96H74.3095L64.4535 49.792L44.6135 96.768L24.7735 50.944L15.3015 96H0.3255L20.8055 1.15199L46.2775 58.368L71.6215 1.15199ZM148.698 97.408C122.33 97.408 100.442 75.008 100.442 49.152C100.442 22.528 122.97 1.02399 148.698 1.02399C175.322 1.02399 196.954 23.424 196.954 49.152C196.954 76.032 174.554 97.408 148.698 97.408ZM118.106 49.152C118.106 66.816 131.93 83.456 148.698 83.456C166.49 83.456 179.29 65.536 179.29 49.152C179.29 31.872 165.465 14.848 148.698 14.848C131.29 14.848 118.106 32.384 118.106 49.152ZM255.948 97.408C229.58 97.408 207.692 75.008 207.692 49.152C207.692 22.528 230.22 1.02399 255.948 1.02399C282.572 1.02399 304.204 23.424 304.204 49.152C304.204 76.032 281.804 97.408 255.948 97.408ZM225.356 49.152C225.356 66.816 239.18 83.456 255.948 83.456C273.74 83.456 286.54 65.536 286.54 49.152C286.54 31.872 272.715 14.848 255.948 14.848C238.54 14.848 225.356 32.384 225.356 49.152ZM388.03 98.304L335.678 44.672V96H318.91V0.767998L371.262 55.552V2.17599H388.03V98.304ZM522.683 96V79.488H537.403V96H522.683Z"/>
<path d="M438.672 1.15199L477.456 96H459.28L453.904 82.816H420.624L415.12 96H399.632L438.672 1.15199ZM426 68.992H448.528L437.264 41.216L426 68.992ZM507.586 2.17599V96H490.434V2.17599H507.586Z"/>
</mask>
<path d="M438.672 1.15199L477.456 96H459.28L453.904 82.816H420.624L415.12 96H399.632L438.672 1.15199ZM426 68.992H448.528L437.264 41.216L426 68.992ZM507.586 2.17599V96H490.434V2.17599H507.586Z" fill="black"/>
<path d="M71.6215 1.15199L73.5781 0.737444L72.2967 -5.3105L69.7929 0.341994L71.6215 1.15199ZM91.7175 96V98H94.1857L93.6741 95.5855L91.7175 96ZM74.3095 96L72.3535 96.4172L72.6911 98H74.3095V96ZM64.4535 49.792L66.4095 49.3748L65.0838 43.1592L62.6111 49.0139L64.4535 49.792ZM44.6135 96.768L42.7781 97.5626L44.6363 101.854L46.4559 97.5461L44.6135 96.768ZM24.7735 50.944L26.6089 50.1494L24.1101 44.3781L22.8163 50.5325L24.7735 50.944ZM15.3015 96V98H16.9248L17.2587 96.4115L15.3015 96ZM0.3255 96L-1.62945 95.5779L-2.15244 98H0.3255V96ZM20.8055 1.15199L22.6326 0.338578L20.1427 -5.25436L18.8506 0.729872L20.8055 1.15199ZM46.2775 58.368L44.4504 59.1814L46.2821 63.2959L48.1061 59.178L46.2775 58.368ZM69.6649 1.56654L89.7609 96.4145L93.6741 95.5855L73.5781 0.737444L69.6649 1.56654ZM91.7175 94H74.3095V98H91.7175V94ZM76.2655 95.5828L66.4095 49.3748L62.4975 50.2092L72.3535 96.4172L76.2655 95.5828ZM62.6111 49.0139L42.7711 95.9899L46.4559 97.5461L66.2959 50.5701L62.6111 49.0139ZM46.4489 95.9734L26.6089 50.1494L22.9381 51.7386L42.7781 97.5626L46.4489 95.9734ZM22.8163 50.5325L13.3443 95.5885L17.2587 96.4115L26.7307 51.3555L22.8163 50.5325ZM15.3015 94H0.3255V98H15.3015V94ZM2.28045 96.4221L22.7604 1.57411L18.8506 0.729872L-1.62945 95.5779L2.28045 96.4221ZM18.9784 1.96541L44.4504 59.1814L48.1046 57.5546L22.6326 0.338578L18.9784 1.96541ZM48.1061 59.178L73.4501 1.96199L69.7929 0.341994L44.4489 57.558L48.1061 59.178ZM148.698 95.408C123.448 95.408 102.442 73.9172 102.442 49.152H98.4415C98.4415 76.0988 121.211 99.408 148.698 99.408V95.408ZM102.442 49.152C102.442 23.6634 124.043 3.02399 148.698 3.02399V-0.976006C121.896 -0.976006 98.4415 21.3926 98.4415 49.152H102.442ZM148.698 3.02399C174.2 3.02399 194.954 24.5113 194.954 49.152H198.954C198.954 22.3367 176.443 -0.976006 148.698 -0.976006V3.02399ZM194.954 49.152C194.954 74.9 173.477 95.408 148.698 95.408V99.408C175.63 99.408 198.954 77.164 198.954 49.152H194.954ZM116.106 49.152C116.106 67.6542 130.576 85.456 148.698 85.456V81.456C133.283 81.456 120.106 65.9778 120.106 49.152H116.106ZM148.698 85.456C158.309 85.456 166.485 80.6094 172.204 73.7261C177.91 66.858 181.29 57.835 181.29 49.152H177.29C177.29 56.853 174.269 64.982 169.127 71.1699C163.998 77.3426 156.878 81.456 148.698 81.456V85.456ZM181.29 49.152C181.29 39.9962 177.637 30.9632 171.794 24.2113C165.949 17.4571 157.783 12.848 148.698 12.848V16.848C156.38 16.848 163.51 20.7509 168.769 26.8287C174.03 32.9087 177.29 41.0278 177.29 49.152H181.29ZM148.698 12.848C139.285 12.848 131.113 17.5919 125.345 24.4216C119.587 31.2411 116.106 40.2684 116.106 49.152H120.106C120.106 41.2676 123.216 33.1429 128.402 27.0024C133.578 20.8721 140.702 16.848 148.698 16.848V12.848ZM255.948 95.408C230.698 95.408 209.692 73.9172 209.692 49.152H205.692C205.692 76.0988 228.461 99.408 255.948 99.408V95.408ZM209.692 49.152C209.692 23.6634 231.293 3.02399 255.948 3.02399V-0.976006C229.146 -0.976006 205.692 21.3926 205.692 49.152H209.692ZM255.948 3.02399C281.45 3.02399 302.204 24.5113 302.204 49.152H306.204C306.204 22.3367 283.693 -0.976006 255.948 -0.976006V3.02399ZM302.204 49.152C302.204 74.9 280.727 95.408 255.948 95.408V99.408C282.88 99.408 306.204 77.164 306.204 49.152H302.204ZM223.356 49.152C223.356 67.6542 237.826 85.456 255.948 85.456V81.456C240.533 81.456 227.356 65.9778 227.356 49.152H223.356ZM255.948 85.456C265.559 85.456 273.735 80.6094 279.454 73.7261C285.16 66.858 288.54 57.835 288.54 49.152H284.54C284.54 56.853 281.519 64.982 276.377 71.1699C271.248 77.3426 264.128 81.456 255.948 81.456V85.456ZM288.54 49.152C288.54 39.9962 284.887 30.9632 279.044 24.2113C273.199 17.4571 265.033 12.848 255.948 12.848V16.848C263.63 16.848 270.76 20.7509 276.019 26.8287C281.28 32.9087 284.54 41.0278 284.54 49.152H288.54ZM255.948 12.848C246.535 12.848 238.363 17.5919 232.595 24.4216C226.837 31.2411 223.356 40.2684 223.356 49.152H227.356C227.356 41.2676 230.466 33.1429 235.652 27.0024C240.828 20.8721 247.952 16.848 255.948 16.848V12.848ZM388.03 98.304L386.598 99.701L390.03 103.216V98.304H388.03ZM335.678 44.672L337.109 43.275L333.678 39.7599V44.672H335.678ZM335.678 96V98H337.678V96H335.678ZM318.91 96H316.91V98H318.91V96ZM318.91 0.767998L320.355 -0.613757L316.91 -4.21978V0.767998H318.91ZM371.262 55.552L369.816 56.9338L373.262 60.5398V55.552H371.262ZM371.262 2.17599V0.175995H369.262V2.17599H371.262ZM388.03 2.17599H390.03V0.175995H388.03V2.17599ZM389.461 96.907L337.109 43.275L334.246 46.069L386.598 99.701L389.461 96.907ZM333.678 44.672V96H337.678V44.672H333.678ZM335.678 94H318.91V98H335.678V94ZM320.91 96V0.767998H316.91V96H320.91ZM317.464 2.14975L369.816 56.9338L372.707 54.1702L320.355 -0.613757L317.464 2.14975ZM373.262 55.552V2.17599H369.262V55.552H373.262ZM371.262 4.17599H388.03V0.175995H371.262V4.17599ZM386.03 2.17599V98.304H390.03V2.17599H386.03ZM438.672 1.15199L440.523 0.395019L438.678 -4.11732L436.822 0.390744L438.672 1.15199ZM477.456 96V98H480.434L479.307 95.243L477.456 96ZM459.28 96L457.428 96.7552L457.935 98H459.28V96ZM453.904 82.816L455.755 82.0608L455.248 80.816H453.904V82.816ZM420.624 82.816V80.816H419.291L418.778 82.0455L420.624 82.816ZM415.12 96V98H416.452L416.965 96.7705L415.12 96ZM399.632 96L397.782 95.2388L396.645 98H399.632V96ZM426 68.992L424.146 68.2404L423.03 70.992H426V68.992ZM448.528 68.992V70.992H451.497L450.381 68.2404L448.528 68.992ZM437.264 41.216L439.117 40.4644L437.263 35.8941L435.41 40.4644L437.264 41.216ZM436.82 1.90897L475.604 96.757L479.307 95.243L440.523 0.395019L436.82 1.90897ZM477.456 94H459.28V98H477.456V94ZM461.131 95.2448L455.755 82.0608L452.052 83.5712L457.428 96.7552L461.131 95.2448ZM453.904 80.816H420.624V84.816H453.904V80.816ZM418.778 82.0455L413.274 95.2295L416.965 96.7705L422.469 83.5865L418.778 82.0455ZM415.12 94H399.632V98H415.12V94ZM401.481 96.7612L440.521 1.91324L436.822 0.390744L397.782 95.2388L401.481 96.7612ZM426 70.992H448.528V66.992H426V70.992ZM450.381 68.2404L439.117 40.4644L435.41 41.9676L446.674 69.7436L450.381 68.2404ZM435.41 40.4644L424.146 68.2404L427.853 69.7436L439.117 41.9676L435.41 40.4644ZM507.586 2.17599H509.586V0.175995H507.586V2.17599ZM507.586 96V98H509.586V96H507.586ZM490.434 96H488.434V98H490.434V96ZM490.434 2.17599V0.175995H488.434V2.17599H490.434ZM505.586 2.17599V96H509.586V2.17599H505.586ZM507.586 94H490.434V98H507.586V94ZM492.434 96V2.17599H488.434V96H492.434ZM490.434 4.17599H507.586V0.175995H490.434V4.17599ZM522.683 96H520.683V98H522.683V96ZM522.683 79.488V77.488H520.683V79.488H522.683ZM537.403 79.488H539.403V77.488H537.403V79.488ZM537.403 96V98H539.403V96H537.403ZM524.683 96V79.488H520.683V96H524.683ZM522.683 81.488H537.403V77.488H522.683V81.488ZM535.403 79.488V96H539.403V79.488H535.403ZM537.403 94H522.683V98H537.403V94Z" fill="black" mask="url(#path-1-inside-1_159_1844)"/>
</svg>
